<?xml version="1.0" encoding="UTF-8"?>
<svg id="Layer_2" data-name="Layer 2" xmlns="http://www.w3.org/2000/svg" viewBox="0 0 1349.02 1359.13">
  <defs>
    <style>
      .cls-1 {
        fill-rule: evenodd;
      }
    </style>
  </defs>
  <g id="Layer_1-2" data-name="Layer 1">
    <path d="M655.96,1347.33c-158.51-91.06-290.04-222.59-381.1-382.78-45.53-75.88-79.25-158.51-102.86-246.2,11.8-8.43,33.73-15.18,69.14-13.49,21.92,79.26,53.96,155.14,94.43,224.27,16.86,28.67,33.73,57.33,53.96,82.63v1.69c3.37,3.37,5.06,6.75,6.75,10.12,5.06,5.06,8.43,10.12,13.49,15.18,72.51,94.43,161.88,175.37,264.75,237.76,101.18-62.39,190.55-143.33,264.74-236.08,3.37-5.06,8.43-11.8,11.8-16.86,3.37-3.37,6.74-8.43,8.43-11.8,20.24-26.98,37.1-53.96,53.96-82.63,40.47-69.14,70.82-145.02,94.43-224.27,35.41-1.69,55.65,5.06,69.14,13.49-23.61,87.69-59.02,170.31-102.86,246.2-91.06,160.2-224.27,291.73-382.78,382.78l-16.86,11.8-18.55-11.8Z"/>
    <path class="cls-1" d="M0,703.18c5.06,13.49,43.84,28.67,64.08,25.29,0,0-10.12-30.35,35.41-43.84,45.53-13.49,80.94-8.43,52.27-40.47,0,0,52.27,5.06,16.86,32.04-35.41,26.98-45.53,38.78-47.22,45.53l-16.86-3.37s11.8,20.24,33.73,18.55c0,0,15.18-55.65,111.29-45.53,0,0-13.49-35.41,30.35-48.9,0,0-72.51-25.29-43.84-59.02,0,0,3.37,33.73,87.69,67.45,0,0-64.08,11.8-43.84,53.96,53.96,8.43,40.47,69.14,42.16,134.9,10.12-65.76,50.59-128.16,79.26-180.43-28.67-47.22-77.57-89.37-172-109.61,0,0-10.12,18.55-26.98,20.23,0,0,28.67-35.41,8.43-75.88,0,0-16.86,60.71-102.86,89.37l-55.65,52.27s35.41,43.84-52.27,67.45h0ZM11.8,376.04c-3.37,20.24,42.16,65.76,72.51,72.51,0,0,10.12-47.21,86-40.47,74.2,6.74,124.78,33.73,106.24-26.98,0,0,70.82,38.78,0,55.65-70.82,16.86-92.74,25.29-102.86,33.73l-21.92-11.8s1.69,33.73,37.1,43.84c0,0,62.39-69.14,193.92,0,0,0,6.75-59.02,80.94-48.9,0,0-86-79.25-18.55-107.92,0,0-21.92,48.9,77.57,143.33,0,0-104.55-21.92-104.55,50.59,87.69,50.59-26.98,141.65-65.76,256.31-57.33,165.25,172,364.23,322.08,436.74v-145.02c-109.61-40.47-195.61-160.19-156.82-241.14-15.18-96.12,25.29-187.18,65.76-273.18,13.49-30.35,28.67-62.39,38.78-92.74-18.55-64.08-65.76-128.16-161.88-185.49,0,0-30.35,18.55-55.65,11.8,0,0,60.71-26.98,69.14-86-3.37-1.69-5.06-3.37-8.43-6.75-21.92,18.55-91.06,65.77-209.1,59.02l-118.04,40.47s16.86,80.94-126.47,62.39h0ZM1337.21,376.04c1.69,20.24-42.16,65.76-72.51,72.51,0,0-10.12-47.21-86-40.47-75.88,6.74-124.78,33.73-106.24-26.98,0,0-70.82,38.78,0,55.65,70.82,16.86,92.74,25.29,102.86,33.73l21.92-11.8s-1.69,33.73-37.1,43.84c0,0-62.39-69.14-193.92,0,0,0-5.06-40.47-48.9-48.9,5.06-18.55,8.43-37.1,8.43-57.33,5.06-10.12,5.06-20.24,1.69-30.35,0-18.55-1.69-37.1-5.06-57.33,8.43,0,15.18,1.69,21.92-1.69,0,0-10.12-5.06-23.61-15.18-3.37-18.55-8.43-40.47-15.18-60.71,33.73,20.23,96.12,47.22,187.18,42.16l118.04,40.47s-16.86,80.94,126.47,62.39h0ZM905.53,495.76c15.18,6.75,25.29,20.24,25.29,43.84-87.69,50.59,25.29,141.65,65.76,256.31,57.33,165.25-172,364.23-322.08,436.74v-145.02l6.74-1.69,10.12,6.75c11.8,10.12,30.35,6.74,38.78-5.06,8.43-8.43,8.43-21.92,3.37-30.35,80.94-55.65,131.53-150.08,94.43-217.53-20.23-35.41-40.47-72.51-59.02-111.29,8.43-13.49,16.86-25.29,25.29-37.1,42.16-60.71,86-123.1,111.29-195.61h0ZM1349.02,703.18c-5.06,13.49-45.53,28.67-64.08,25.29,0,0,8.43-30.35-35.41-43.84-45.53-13.49-80.94-8.43-52.27-40.47,0,0-52.27,5.06-16.86,32.04,33.73,26.98,43.84,38.78,47.22,45.53l16.86-3.37s-11.8,20.24-35.41,18.55c0,0-13.49-55.65-109.61-45.53,0,0,13.49-35.41-32.04-48.9,0,0,74.2-25.29,45.53-59.02,0,0-3.37,33.73-89.37,67.45,0,0,65.76,11.8,43.84,53.96-52.27,8.43-38.78,69.14-40.47,134.9-10.12-65.76-50.59-128.16-79.26-180.43,28.67-47.22,77.57-89.37,170.31-109.61,0,0,11.8,18.55,28.67,20.23,0,0-30.35-35.41-8.43-75.88,0,0,16.86,60.71,102.86,89.37l53.96,52.27s-33.73,43.84,53.96,67.45h0Z"/>
    <path class="cls-1" d="M413.14,0c-15.18,18.55-3.37,80.94,18.55,99.49,0,0,33.73-38.78,92.74,0,59.02,40.47,84.31,86,104.55,23.61,0,0,37.1,65.76-32.04,50.59-67.45-16.86-91.06-18.55-104.55-15.18l-10.12-20.23s-18.55,32.04,5.06,57.33c0,0,91.06-35.41,160.2,86,0,0,38.78-50.59,96.12-10.12,0,0-28.67-109.61,42.16-106.24,0,0-43.84,35.41-15.18,165.25,0,0-72.51-65.76-114.67,0,69.14,187.18-333.88,470.47,18.55,902.15l129.84-136.59c-333.88-311.96,276.55-500.82,25.29-971.29,0,0-37.1,5.06-55.65-11.8,0,0,75.88,1.69,114.67-60.71,0,0-99.49,35.41-217.53-37.1L551.41,0s-30.35,80.94-138.27,0h0Z"/>
  </g>
</svg>
