<svg width="92" height="56" viewBox="0 0 92 56" fill="none" xmlns="http://www.w3.org/2000/svg">
<g clip-path="url(#clip0_14_193)">
<path d="M45.78 46.73L22.89 34.88V43.6L45.78 55.45V46.73Z" fill="#B72029"/>
<path d="M91.56 46.73L68.67 34.88V43.6L91.56 55.45V46.73Z" fill="#B72029"/>
<path d="M45.78 29.29L22.89 17.44V26.16L45.78 38.01V29.29Z" fill="#B72029"/>
<path d="M91.56 29.29L68.67 17.44V26.16L91.56 38.01V29.29Z" fill="#B72029"/>
<path d="M91.56 11.85L68.67 0V8.72L91.56 20.57V11.85Z" fill="#B72029"/>
<path d="M0 46.73L22.89 34.88V43.6L0 55.45V46.73Z" fill="#E31F26"/>
<path d="M45.78 46.73L68.67 34.88V43.6L45.78 55.45V46.73Z" fill="#E31F26"/>
<path d="M0 29.29L22.89 17.44V26.16L0 38.01V29.29Z" fill="#E31F26"/>
<path d="M45.78 29.29L68.67 17.44V26.16L45.78 38.01V29.29Z" fill="#E31F26"/>
<path d="M45.78 11.85L68.67 0V8.72L45.78 20.57V11.85Z" fill="#E31F26"/>
<path d="M45.78 11.85L22.89 0V17.44L45.78 29.29V11.85Z" fill="#1D3455"/>
<path d="M0 11.85L22.89 0V17.44L0 29.29V11.85Z" fill="#005093"/>
</g>
<defs>
<clipPath id="clip0_14_193">
<rect width="91.56" height="55.45" fill="white"/>
</clipPath>
</defs>
</svg>
